<svg width="40" height="40" viewBox="0 0 40 40" fill="none" xmlns="http://www.w3.org/2000/svg">
<path d="M22.1008 39.9016V36.9016C23.6008 36.7016 25.0591 36.3099 26.4758 35.7266C27.8924 35.1432 29.2174 34.3682 30.4508 33.4016L32.5008 35.6016C30.9674 36.8682 29.3341 37.8516 27.6008 38.5516C25.8674 39.2516 24.0341 39.7016 22.1008 39.9016ZM35.5508 32.5016L33.4008 30.4516C34.3008 29.2516 35.0508 27.9599 35.6508 26.5766C36.2508 25.1932 36.6674 23.7016 36.9008 22.1016H39.9508C39.6841 24.1016 39.1758 25.9766 38.4258 27.7266C37.6758 29.4766 36.7174 31.0682 35.5508 32.5016ZM36.9008 17.9016C36.6674 16.3016 36.2508 14.8182 35.6508 13.4516C35.0508 12.0849 34.3008 10.7849 33.4008 9.55156L35.5508 7.50156C36.8174 9.16823 37.7841 10.8182 38.4508 12.4516C39.1174 14.0849 39.6174 15.9016 39.9508 17.9016H36.9008ZM17.8508 39.9016C12.7508 39.3349 8.50911 37.1599 5.12578 33.3766C1.74245 29.5932 0.0507812 25.1349 0.0507812 20.0016C0.0507812 14.8682 1.74245 10.4099 5.12578 6.62656C8.50911 2.84323 12.7508 0.668229 17.8508 0.101562V3.10156C13.5841 3.66823 10.0508 5.55156 7.25078 8.75156C4.45078 11.9516 3.05078 15.7016 3.05078 20.0016C3.05078 24.3016 4.45078 28.0516 7.25078 31.2516C10.0508 34.4516 13.5841 36.3349 17.8508 36.9016V39.9016ZM30.5008 6.60156C29.2008 5.70156 27.8424 4.9599 26.4258 4.37656C25.0091 3.79323 23.6008 3.36823 22.2008 3.10156V0.101562C24.0008 0.368229 25.7841 0.851563 27.5508 1.55156C29.3174 2.25156 30.9674 3.20156 32.5008 4.40156L30.5008 6.60156ZM20.0008 30.5516C18.0008 28.8516 16.1091 27.0182 14.3258 25.0516C12.5424 23.0849 11.6508 20.8016 11.6508 18.2016C11.6508 15.8349 12.4591 13.8099 14.0758 12.1266C15.6924 10.4432 17.6674 9.60156 20.0008 9.60156C22.3341 9.60156 24.3091 10.4432 25.9258 12.1266C27.5424 13.8099 28.3508 15.8349 28.3508 18.2016C28.3508 20.8016 27.4591 23.0849 25.6758 25.0516C23.8924 27.0182 22.0008 28.8516 20.0008 30.5516ZM20.0008 20.1016C20.6341 20.1016 21.1674 19.8849 21.6008 19.4516C22.0341 19.0182 22.2508 18.4849 22.2508 17.8516C22.2508 17.2849 22.0341 16.7682 21.6008 16.3016C21.1674 15.8349 20.6341 15.6016 20.0008 15.6016C19.3674 15.6016 18.8341 15.8349 18.4008 16.3016C17.9674 16.7682 17.7508 17.2849 17.7508 17.8516C17.7508 18.4849 17.9674 19.0182 18.4008 19.4516C18.8341 19.8849 19.3674 20.1016 20.0008 20.1016Z" fill="#73D9E7"/>
</svg>
