<svg width="40" height="36" viewBox="0 0 40 36" fill="none" xmlns="http://www.w3.org/2000/svg">
<path d="M3 36C2.2 36 1.5 35.7 0.9 35.1C0.3 34.5 0 33.8 0 33V7.35C0 6.55 0.3 5.85 0.9 5.25C1.5 4.65 2.2 4.35 3 4.35H10.35L14 0H26L29.65 4.35H37C37.8 4.35 38.5 4.65 39.1 5.25C39.7 5.85 40 6.55 40 7.35V33C40 33.8 39.7 34.5 39.1 35.1C38.5 35.7 37.8 36 37 36H3ZM20 33H37V7.35H20V11.7C17.5667 11.7 15.5417 12.5083 13.925 14.125C12.3083 15.7417 11.5 17.7667 11.5 20.2C11.5 22.6 12.3083 24.6167 13.925 26.25C15.5417 27.8833 17.5667 28.7 20 28.7V33ZM20 28.7V25.7C21.4667 25.7 22.75 25.15 23.85 24.05C24.95 22.95 25.5 21.6667 25.5 20.2C25.5 18.7 24.95 17.4083 23.85 16.325C22.75 15.2417 21.4667 14.7 20 14.7V11.7C22.4 11.7 24.4167 12.5083 26.05 14.125C27.6833 15.7417 28.5 17.7667 28.5 20.2C28.5 22.6 27.6833 24.6167 26.05 26.25C24.4167 27.8833 22.4 28.7 20 28.7ZM20 25.7C18.5 25.7 17.2083 25.15 16.125 24.05C15.0417 22.95 14.5 21.6667 14.5 20.2C14.5 18.7 15.0417 17.4083 16.125 16.325C17.2083 15.2417 18.5 14.7 20 14.7V25.7Z" fill="#73D9E7"/>
</svg>
