<svg width="36" height="36" viewBox="0 0 36 36" fill="none" xmlns="http://www.w3.org/2000/svg">
<path d="M1.80156 25.1008L3.25156 23.6508L8.25156 24.3508L17.0516 15.5008L0.601562 6.55078L2.55156 4.60078L22.6516 9.75078L31.0516 1.50078C31.5182 1.03411 32.1016 0.800781 32.8016 0.800781C33.5016 0.800781 34.0849 1.03411 34.5516 1.50078C35.0182 1.96745 35.2516 2.55078 35.2516 3.25078C35.2516 3.95078 35.0182 4.53411 34.5516 5.00078L26.2516 13.3508L31.4016 33.5008L29.4516 35.4008L20.5016 18.9508L11.7016 27.8008L12.4016 32.8008L10.9516 34.2508L7.70156 28.3508L1.80156 25.1008Z" fill="#73D9E7"/>
</svg>
